<svg width="400" height="456" viewBox="0 0 400 456" fill="none" xmlns="http://www.w3.org/2000/svg">
<rect width="400" height="456" rx="16" fill="#1A1A1A"/>
<path d="M136.608 408C169.949 373.736 260.095 355.138 301 350.122C73.1662 330.675 5.40256 140.604 0 48V272.566L136.608 408Z" fill="#FEFEFE" fill-opacity="0.05"/>
<path d="M263.392 48C230.051 82.2637 139.905 100.862 99 105.878C326.834 125.325 394.597 315.396 400 408V183.434L263.392 48Z" fill="#FEFEFE" fill-opacity="0.05"/>
<path d="M157.665 169.278V172.54H161.221V173.59H157.665V176.95H161.641V178H156.391V168.228H161.641V169.278H157.665ZM166.285 178.126C165.697 178.126 165.17 178.028 164.703 177.832C164.237 177.627 163.868 177.347 163.597 176.992C163.327 176.628 163.177 176.213 163.149 175.746H164.465C164.503 176.129 164.68 176.441 164.997 176.684C165.324 176.927 165.749 177.048 166.271 177.048C166.757 177.048 167.139 176.941 167.419 176.726C167.699 176.511 167.839 176.241 167.839 175.914C167.839 175.578 167.69 175.331 167.391 175.172C167.093 175.004 166.631 174.841 166.005 174.682C165.436 174.533 164.969 174.383 164.605 174.234C164.251 174.075 163.943 173.847 163.681 173.548C163.429 173.24 163.303 172.839 163.303 172.344C163.303 171.952 163.42 171.593 163.653 171.266C163.887 170.939 164.218 170.683 164.647 170.496C165.077 170.3 165.567 170.202 166.117 170.202C166.967 170.202 167.653 170.417 168.175 170.846C168.698 171.275 168.978 171.863 169.015 172.61H167.741C167.713 172.209 167.55 171.887 167.251 171.644C166.962 171.401 166.57 171.28 166.075 171.28C165.618 171.28 165.254 171.378 164.983 171.574C164.713 171.77 164.577 172.027 164.577 172.344C164.577 172.596 164.657 172.806 164.815 172.974C164.983 173.133 165.189 173.263 165.431 173.366C165.683 173.459 166.029 173.567 166.467 173.688C167.018 173.837 167.466 173.987 167.811 174.136C168.157 174.276 168.451 174.491 168.693 174.78C168.945 175.069 169.076 175.447 169.085 175.914C169.085 176.334 168.969 176.712 168.735 177.048C168.502 177.384 168.171 177.65 167.741 177.846C167.321 178.033 166.836 178.126 166.285 178.126ZM173.6 178.126C173.012 178.126 172.484 178.028 172.018 177.832C171.551 177.627 171.182 177.347 170.912 176.992C170.641 176.628 170.492 176.213 170.464 175.746H171.78C171.817 176.129 171.994 176.441 172.312 176.684C172.638 176.927 173.063 177.048 173.586 177.048C174.071 177.048 174.454 176.941 174.734 176.726C175.014 176.511 175.154 176.241 175.154 175.914C175.154 175.578 175.004 175.331 174.706 175.172C174.407 175.004 173.945 174.841 173.32 174.682C172.75 174.533 172.284 174.383 171.92 174.234C171.565 174.075 171.257 173.847 170.996 173.548C170.744 173.24 170.618 172.839 170.618 172.344C170.618 171.952 170.734 171.593 170.968 171.266C171.201 170.939 171.532 170.683 171.962 170.496C172.391 170.3 172.881 170.202 173.432 170.202C174.281 170.202 174.967 170.417 175.49 170.846C176.012 171.275 176.292 171.863 176.33 172.61H175.056C175.028 172.209 174.864 171.887 174.566 171.644C174.276 171.401 173.884 171.28 173.39 171.28C172.932 171.28 172.568 171.378 172.298 171.574C172.027 171.77 171.892 172.027 171.892 172.344C171.892 172.596 171.971 172.806 172.13 172.974C172.298 173.133 172.503 173.263 172.746 173.366C172.998 173.459 173.343 173.567 173.782 173.688C174.332 173.837 174.78 173.987 175.126 174.136C175.471 174.276 175.765 174.491 176.008 174.78C176.26 175.069 176.39 175.447 176.4 175.914C176.4 176.334 176.283 176.712 176.05 177.048C175.816 177.384 175.485 177.65 175.056 177.846C174.636 178.033 174.15 178.126 173.6 178.126ZM177.722 174.136C177.722 173.352 177.881 172.666 178.198 172.078C178.515 171.481 178.949 171.019 179.5 170.692C180.06 170.365 180.681 170.202 181.362 170.202C182.034 170.202 182.617 170.347 183.112 170.636C183.607 170.925 183.975 171.289 184.218 171.728V170.328H185.506V178H184.218V176.572C183.966 177.02 183.588 177.393 183.084 177.692C182.589 177.981 182.011 178.126 181.348 178.126C180.667 178.126 180.051 177.958 179.5 177.622C178.949 177.286 178.515 176.815 178.198 176.208C177.881 175.601 177.722 174.911 177.722 174.136ZM184.218 174.15C184.218 173.571 184.101 173.067 183.868 172.638C183.635 172.209 183.317 171.882 182.916 171.658C182.524 171.425 182.09 171.308 181.614 171.308C181.138 171.308 180.704 171.42 180.312 171.644C179.92 171.868 179.607 172.195 179.374 172.624C179.141 173.053 179.024 173.557 179.024 174.136C179.024 174.724 179.141 175.237 179.374 175.676C179.607 176.105 179.92 176.437 180.312 176.67C180.704 176.894 181.138 177.006 181.614 177.006C182.09 177.006 182.524 176.894 182.916 176.67C183.317 176.437 183.635 176.105 183.868 175.676C184.101 175.237 184.218 174.729 184.218 174.15ZM190.375 178.126C189.787 178.126 189.26 178.028 188.793 177.832C188.326 177.627 187.958 177.347 187.687 176.992C187.416 176.628 187.267 176.213 187.239 175.746H188.555C188.592 176.129 188.77 176.441 189.087 176.684C189.414 176.927 189.838 177.048 190.361 177.048C190.846 177.048 191.229 176.941 191.509 176.726C191.789 176.511 191.929 176.241 191.929 175.914C191.929 175.578 191.78 175.331 191.481 175.172C191.182 175.004 190.72 174.841 190.095 174.682C189.526 174.533 189.059 174.383 188.695 174.234C188.34 174.075 188.032 173.847 187.771 173.548C187.519 173.24 187.393 172.839 187.393 172.344C187.393 171.952 187.51 171.593 187.743 171.266C187.976 170.939 188.308 170.683 188.737 170.496C189.166 170.3 189.656 170.202 190.207 170.202C191.056 170.202 191.742 170.417 192.265 170.846C192.788 171.275 193.068 171.863 193.105 172.61H191.831C191.803 172.209 191.64 171.887 191.341 171.644C191.052 171.401 190.66 171.28 190.165 171.28C189.708 171.28 189.344 171.378 189.073 171.574C188.802 171.77 188.667 172.027 188.667 172.344C188.667 172.596 188.746 172.806 188.905 172.974C189.073 173.133 189.278 173.263 189.521 173.366C189.773 173.459 190.118 173.567 190.557 173.688C191.108 173.837 191.556 173.987 191.901 174.136C192.246 174.276 192.54 174.491 192.783 174.78C193.035 175.069 193.166 175.447 193.175 175.914C193.175 176.334 193.058 176.712 192.825 177.048C192.592 177.384 192.26 177.65 191.831 177.846C191.411 178.033 190.926 178.126 190.375 178.126ZM205.706 173.87C205.706 174.113 205.692 174.369 205.664 174.64H199.532C199.579 175.396 199.835 175.989 200.302 176.418C200.778 176.838 201.352 177.048 202.024 177.048C202.575 177.048 203.032 176.922 203.396 176.67C203.769 176.409 204.031 176.063 204.18 175.634H205.552C205.347 176.371 204.936 176.973 204.32 177.44C203.704 177.897 202.939 178.126 202.024 178.126C201.296 178.126 200.643 177.963 200.064 177.636C199.495 177.309 199.047 176.847 198.72 176.25C198.393 175.643 198.23 174.943 198.23 174.15C198.23 173.357 198.389 172.661 198.706 172.064C199.023 171.467 199.467 171.009 200.036 170.692C200.615 170.365 201.277 170.202 202.024 170.202C202.752 170.202 203.396 170.361 203.956 170.678C204.516 170.995 204.945 171.434 205.244 171.994C205.552 172.545 205.706 173.17 205.706 173.87ZM204.39 173.604C204.39 173.119 204.283 172.703 204.068 172.358C203.853 172.003 203.559 171.737 203.186 171.56C202.822 171.373 202.416 171.28 201.968 171.28C201.324 171.28 200.773 171.485 200.316 171.896C199.868 172.307 199.611 172.876 199.546 173.604H204.39ZM220.346 170.188C220.943 170.188 221.475 170.314 221.942 170.566C222.409 170.809 222.777 171.177 223.048 171.672C223.319 172.167 223.454 172.769 223.454 173.478V178H222.194V173.66C222.194 172.895 222.003 172.311 221.62 171.91C221.247 171.499 220.738 171.294 220.094 171.294C219.431 171.294 218.904 171.509 218.512 171.938C218.12 172.358 217.924 172.969 217.924 173.772V178H216.664V173.66C216.664 172.895 216.473 172.311 216.09 171.91C215.717 171.499 215.208 171.294 214.564 171.294C213.901 171.294 213.374 171.509 212.982 171.938C212.59 172.358 212.394 172.969 212.394 173.772V178H211.12V170.328H212.394V171.434C212.646 171.033 212.982 170.725 213.402 170.51C213.831 170.295 214.303 170.188 214.816 170.188C215.46 170.188 216.029 170.333 216.524 170.622C217.019 170.911 217.387 171.336 217.63 171.896C217.845 171.355 218.199 170.935 218.694 170.636C219.189 170.337 219.739 170.188 220.346 170.188ZM225.068 174.136C225.068 173.352 225.226 172.666 225.544 172.078C225.861 171.481 226.295 171.019 226.846 170.692C227.406 170.365 228.026 170.202 228.708 170.202C229.38 170.202 229.963 170.347 230.458 170.636C230.952 170.925 231.321 171.289 231.564 171.728V170.328H232.852V178H231.564V176.572C231.312 177.02 230.934 177.393 230.43 177.692C229.935 177.981 229.356 178.126 228.694 178.126C228.012 178.126 227.396 177.958 226.846 177.622C226.295 177.286 225.861 176.815 225.544 176.208C225.226 175.601 225.068 174.911 225.068 174.136ZM231.564 174.15C231.564 173.571 231.447 173.067 231.214 172.638C230.98 172.209 230.663 171.882 230.262 171.658C229.87 171.425 229.436 171.308 228.96 171.308C228.484 171.308 228.05 171.42 227.658 171.644C227.266 171.868 226.953 172.195 226.72 172.624C226.486 173.053 226.37 173.557 226.37 174.136C226.37 174.724 226.486 175.237 226.72 175.676C226.953 176.105 227.266 176.437 227.658 176.67C228.05 176.894 228.484 177.006 228.96 177.006C229.436 177.006 229.87 176.894 230.262 176.67C230.663 176.437 230.98 176.105 231.214 175.676C231.447 175.237 231.564 174.729 231.564 174.15ZM235.663 169.082C235.42 169.082 235.215 168.998 235.047 168.83C234.879 168.662 234.795 168.457 234.795 168.214C234.795 167.971 234.879 167.766 235.047 167.598C235.215 167.43 235.42 167.346 235.663 167.346C235.896 167.346 236.092 167.43 236.251 167.598C236.419 167.766 236.503 167.971 236.503 168.214C236.503 168.457 236.419 168.662 236.251 168.83C236.092 168.998 235.896 169.082 235.663 169.082ZM236.279 170.328V178H235.005V170.328H236.279ZM241.166 178.126C240.578 178.126 240.051 178.028 239.584 177.832C239.117 177.627 238.749 177.347 238.478 176.992C238.207 176.628 238.058 176.213 238.03 175.746H239.346C239.383 176.129 239.561 176.441 239.878 176.684C240.205 176.927 240.629 177.048 241.152 177.048C241.637 177.048 242.02 176.941 242.3 176.726C242.58 176.511 242.72 176.241 242.72 175.914C242.72 175.578 242.571 175.331 242.272 175.172C241.973 175.004 241.511 174.841 240.886 174.682C240.317 174.533 239.85 174.383 239.486 174.234C239.131 174.075 238.823 173.847 238.562 173.548C238.31 173.24 238.184 172.839 238.184 172.344C238.184 171.952 238.301 171.593 238.534 171.266C238.767 170.939 239.099 170.683 239.528 170.496C239.957 170.3 240.447 170.202 240.998 170.202C241.847 170.202 242.533 170.417 243.056 170.846C243.579 171.275 243.859 171.863 243.896 172.61H242.622C242.594 172.209 242.431 171.887 242.132 171.644C241.843 171.401 241.451 171.28 240.956 171.28C240.499 171.28 240.135 171.378 239.864 171.574C239.593 171.77 239.458 172.027 239.458 172.344C239.458 172.596 239.537 172.806 239.696 172.974C239.864 173.133 240.069 173.263 240.312 173.366C240.564 173.459 240.909 173.567 241.348 173.688C241.899 173.837 242.347 173.987 242.692 174.136C243.037 174.276 243.331 174.491 243.574 174.78C243.826 175.069 243.957 175.447 243.966 175.914C243.966 176.334 243.849 176.712 243.616 177.048C243.383 177.384 243.051 177.65 242.622 177.846C242.202 178.033 241.717 178.126 241.166 178.126Z" fill="#F2F2F2"/>
<path d="M173.101 280.742C173.353 280.303 173.726 279.939 174.221 279.65C174.725 279.351 175.308 279.202 175.971 279.202C176.652 279.202 177.268 279.365 177.819 279.692C178.379 280.019 178.818 280.481 179.135 281.078C179.452 281.666 179.611 282.352 179.611 283.136C179.611 283.911 179.452 284.601 179.135 285.208C178.818 285.815 178.379 286.286 177.819 286.622C177.268 286.958 176.652 287.126 175.971 287.126C175.318 287.126 174.739 286.981 174.235 286.692C173.74 286.393 173.362 286.025 173.101 285.586V290.64H171.827V279.328H173.101V280.742ZM178.309 283.136C178.309 282.557 178.192 282.053 177.959 281.624C177.726 281.195 177.408 280.868 177.007 280.644C176.615 280.42 176.181 280.308 175.705 280.308C175.238 280.308 174.804 280.425 174.403 280.658C174.011 280.882 173.694 281.213 173.451 281.652C173.218 282.081 173.101 282.581 173.101 283.15C173.101 283.729 173.218 284.237 173.451 284.676C173.694 285.105 174.011 285.437 174.403 285.67C174.804 285.894 175.238 286.006 175.705 286.006C176.181 286.006 176.615 285.894 177.007 285.67C177.408 285.437 177.726 285.105 177.959 284.676C178.192 284.237 178.309 283.724 178.309 283.136ZM188.288 282.87C188.288 283.113 188.274 283.369 188.246 283.64H182.114C182.161 284.396 182.417 284.989 182.884 285.418C183.36 285.838 183.934 286.048 184.606 286.048C185.157 286.048 185.614 285.922 185.978 285.67C186.351 285.409 186.613 285.063 186.762 284.634H188.134C187.929 285.371 187.518 285.973 186.902 286.44C186.286 286.897 185.521 287.126 184.606 287.126C183.878 287.126 183.225 286.963 182.646 286.636C182.077 286.309 181.629 285.847 181.302 285.25C180.975 284.643 180.812 283.943 180.812 283.15C180.812 282.357 180.971 281.661 181.288 281.064C181.605 280.467 182.049 280.009 182.618 279.692C183.197 279.365 183.859 279.202 184.606 279.202C185.334 279.202 185.978 279.361 186.538 279.678C187.098 279.995 187.527 280.434 187.826 280.994C188.134 281.545 188.288 282.17 188.288 282.87ZM186.972 282.604C186.972 282.119 186.865 281.703 186.65 281.358C186.435 281.003 186.141 280.737 185.768 280.56C185.404 280.373 184.998 280.28 184.55 280.28C183.906 280.28 183.355 280.485 182.898 280.896C182.45 281.307 182.193 281.876 182.128 282.604H186.972ZM192.686 287.126C192.098 287.126 191.57 287.028 191.104 286.832C190.637 286.627 190.268 286.347 189.998 285.992C189.727 285.628 189.578 285.213 189.55 284.746H190.866C190.903 285.129 191.08 285.441 191.398 285.684C191.724 285.927 192.149 286.048 192.672 286.048C193.157 286.048 193.54 285.941 193.82 285.726C194.1 285.511 194.24 285.241 194.24 284.914C194.24 284.578 194.09 284.331 193.792 284.172C193.493 284.004 193.031 283.841 192.406 283.682C191.836 283.533 191.37 283.383 191.006 283.234C190.651 283.075 190.343 282.847 190.082 282.548C189.83 282.24 189.704 281.839 189.704 281.344C189.704 280.952 189.82 280.593 190.054 280.266C190.287 279.939 190.618 279.683 191.048 279.496C191.477 279.3 191.967 279.202 192.518 279.202C193.367 279.202 194.053 279.417 194.576 279.846C195.098 280.275 195.378 280.863 195.416 281.61H194.142C194.114 281.209 193.95 280.887 193.652 280.644C193.362 280.401 192.97 280.28 192.476 280.28C192.018 280.28 191.654 280.378 191.384 280.574C191.113 280.77 190.978 281.027 190.978 281.344C190.978 281.596 191.057 281.806 191.216 281.974C191.384 282.133 191.589 282.263 191.832 282.366C192.084 282.459 192.429 282.567 192.868 282.688C193.418 282.837 193.866 282.987 194.212 283.136C194.557 283.276 194.851 283.491 195.094 283.78C195.346 284.069 195.476 284.447 195.486 284.914C195.486 285.334 195.369 285.712 195.136 286.048C194.902 286.384 194.571 286.65 194.142 286.846C193.722 287.033 193.236 287.126 192.686 287.126ZM200 287.126C199.412 287.126 198.885 287.028 198.418 286.832C197.951 286.627 197.583 286.347 197.312 285.992C197.041 285.628 196.892 285.213 196.864 284.746H198.18C198.217 285.129 198.395 285.441 198.712 285.684C199.039 285.927 199.463 286.048 199.986 286.048C200.471 286.048 200.854 285.941 201.134 285.726C201.414 285.511 201.554 285.241 201.554 284.914C201.554 284.578 201.405 284.331 201.106 284.172C200.807 284.004 200.345 283.841 199.72 283.682C199.151 283.533 198.684 283.383 198.32 283.234C197.965 283.075 197.657 282.847 197.396 282.548C197.144 282.24 197.018 281.839 197.018 281.344C197.018 280.952 197.135 280.593 197.368 280.266C197.601 279.939 197.933 279.683 198.362 279.496C198.791 279.3 199.281 279.202 199.832 279.202C200.681 279.202 201.367 279.417 201.89 279.846C202.413 280.275 202.693 280.863 202.73 281.61H201.456C201.428 281.209 201.265 280.887 200.966 280.644C200.677 280.401 200.285 280.28 199.79 280.28C199.333 280.28 198.969 280.378 198.698 280.574C198.427 280.77 198.292 281.027 198.292 281.344C198.292 281.596 198.371 281.806 198.53 281.974C198.698 282.133 198.903 282.263 199.146 282.366C199.398 282.459 199.743 282.567 200.182 282.688C200.733 282.837 201.181 282.987 201.526 283.136C201.871 283.276 202.165 283.491 202.408 283.78C202.66 284.069 202.791 284.447 202.8 284.914C202.8 285.334 202.683 285.712 202.45 286.048C202.217 286.384 201.885 286.65 201.456 286.846C201.036 287.033 200.551 287.126 200 287.126ZM207.945 287.126C207.226 287.126 206.573 286.963 205.985 286.636C205.406 286.309 204.949 285.847 204.613 285.25C204.286 284.643 204.123 283.943 204.123 283.15C204.123 282.366 204.291 281.675 204.627 281.078C204.972 280.471 205.439 280.009 206.027 279.692C206.615 279.365 207.273 279.202 208.001 279.202C208.729 279.202 209.387 279.365 209.975 279.692C210.563 280.009 211.025 280.467 211.361 281.064C211.706 281.661 211.879 282.357 211.879 283.15C211.879 283.943 211.701 284.643 211.347 285.25C211.001 285.847 210.53 286.309 209.933 286.636C209.335 286.963 208.673 287.126 207.945 287.126ZM207.945 286.006C208.402 286.006 208.831 285.899 209.233 285.684C209.634 285.469 209.956 285.147 210.199 284.718C210.451 284.289 210.577 283.766 210.577 283.15C210.577 282.534 210.455 282.011 210.213 281.582C209.97 281.153 209.653 280.835 209.261 280.63C208.869 280.415 208.444 280.308 207.987 280.308C207.52 280.308 207.091 280.415 206.699 280.63C206.316 280.835 206.008 281.153 205.775 281.582C205.541 282.011 205.425 282.534 205.425 283.15C205.425 283.775 205.537 284.303 205.761 284.732C205.994 285.161 206.302 285.483 206.685 285.698C207.067 285.903 207.487 286.006 207.945 286.006ZM213.078 283.136C213.078 282.352 213.236 281.666 213.554 281.078C213.871 280.481 214.305 280.019 214.856 279.692C215.416 279.365 216.036 279.202 216.718 279.202C217.39 279.202 217.973 279.347 218.468 279.636C218.962 279.925 219.331 280.289 219.574 280.728V279.328H220.862V287H219.574V285.572C219.322 286.02 218.944 286.393 218.44 286.692C217.945 286.981 217.366 287.126 216.704 287.126C216.022 287.126 215.406 286.958 214.856 286.622C214.305 286.286 213.871 285.815 213.554 285.208C213.236 284.601 213.078 283.911 213.078 283.136ZM219.574 283.15C219.574 282.571 219.457 282.067 219.224 281.638C218.99 281.209 218.673 280.882 218.272 280.658C217.88 280.425 217.446 280.308 216.97 280.308C216.494 280.308 216.06 280.42 215.668 280.644C215.276 280.868 214.963 281.195 214.73 281.624C214.496 282.053 214.38 282.557 214.38 283.136C214.38 283.724 214.496 284.237 214.73 284.676C214.963 285.105 215.276 285.437 215.668 285.67C216.06 285.894 216.494 286.006 216.97 286.006C217.446 286.006 217.88 285.894 218.272 285.67C218.673 285.437 218.99 285.105 219.224 284.676C219.457 284.237 219.574 283.729 219.574 283.15ZM225.731 287.126C225.143 287.126 224.615 287.028 224.149 286.832C223.682 286.627 223.313 286.347 223.043 285.992C222.772 285.628 222.623 285.213 222.595 284.746H223.911C223.948 285.129 224.125 285.441 224.443 285.684C224.769 285.927 225.194 286.048 225.717 286.048C226.202 286.048 226.585 285.941 226.865 285.726C227.145 285.511 227.285 285.241 227.285 284.914C227.285 284.578 227.135 284.331 226.837 284.172C226.538 284.004 226.076 283.841 225.451 283.682C224.881 283.533 224.415 283.383 224.051 283.234C223.696 283.075 223.388 282.847 223.127 282.548C222.875 282.24 222.749 281.839 222.749 281.344C222.749 280.952 222.865 280.593 223.099 280.266C223.332 279.939 223.663 279.683 224.093 279.496C224.522 279.3 225.012 279.202 225.563 279.202C226.412 279.202 227.098 279.417 227.621 279.846C228.143 280.275 228.423 280.863 228.461 281.61H227.187C227.159 281.209 226.995 280.887 226.697 280.644C226.407 280.401 226.015 280.28 225.521 280.28C225.063 280.28 224.699 280.378 224.429 280.574C224.158 280.77 224.023 281.027 224.023 281.344C224.023 281.596 224.102 281.806 224.261 281.974C224.429 282.133 224.634 282.263 224.877 282.366C225.129 282.459 225.474 282.567 225.913 282.688C226.463 282.837 226.911 282.987 227.257 283.136C227.602 283.276 227.896 283.491 228.139 283.78C228.391 284.069 228.521 284.447 228.531 284.914C228.531 285.334 228.414 285.712 228.181 286.048C227.947 286.384 227.616 286.65 227.187 286.846C226.767 287.033 226.281 287.126 225.731 287.126Z" fill="#F2F2F2"/>
<path d="M130.757 219.224C130.917 216.024 132.037 213.56 134.117 211.832C136.229 210.072 138.997 209.192 142.421 209.192C144.757 209.192 146.757 209.608 148.421 210.44C150.085 211.24 151.333 212.344 152.165 213.752C153.029 215.128 153.461 216.696 153.461 218.456C153.461 220.472 152.933 222.184 151.877 223.592C150.853 224.968 149.621 225.896 148.181 226.376V226.568C150.037 227.144 151.477 228.168 152.501 229.64C153.557 231.112 154.085 233 154.085 235.304C154.085 237.224 153.637 238.936 152.741 240.44C151.877 241.944 150.581 243.128 148.853 243.992C147.157 244.824 145.109 245.24 142.709 245.24C139.093 245.24 136.149 244.328 133.877 242.504C131.605 240.68 130.405 237.992 130.277 234.44H136.805C136.869 236.008 137.397 237.272 138.389 238.232C139.413 239.16 140.805 239.624 142.565 239.624C144.197 239.624 145.445 239.176 146.309 238.28C147.205 237.352 147.653 236.168 147.653 234.728C147.653 232.808 147.045 231.432 145.829 230.6C144.613 229.768 142.725 229.352 140.165 229.352H138.773V223.832H140.165C144.709 223.832 146.981 222.312 146.981 219.272C146.981 217.896 146.565 216.824 145.733 216.056C144.933 215.288 143.765 214.904 142.229 214.904C140.725 214.904 139.557 215.32 138.725 216.152C137.925 216.952 137.461 217.976 137.333 219.224H130.757ZM161.508 237.416C164.58 234.856 167.028 232.728 168.852 231.032C170.676 229.304 172.196 227.512 173.412 225.656C174.628 223.8 175.236 221.976 175.236 220.184C175.236 218.552 174.852 217.272 174.084 216.344C173.316 215.416 172.132 214.952 170.532 214.952C168.932 214.952 167.7 215.496 166.836 216.584C165.972 217.64 165.524 219.096 165.492 220.952H158.964C159.092 217.112 160.228 214.2 162.372 212.216C164.548 210.232 167.3 209.24 170.628 209.24C174.276 209.24 177.076 210.216 179.028 212.168C180.98 214.088 181.956 216.632 181.956 219.8C181.956 222.296 181.284 224.68 179.94 226.952C178.596 229.224 177.06 231.208 175.332 232.904C173.604 234.568 171.348 236.584 168.564 238.952H182.724V244.52H159.012V239.528L161.508 237.416ZM190.702 245.336C189.486 245.336 188.478 244.968 187.678 244.232C186.91 243.464 186.526 242.52 186.526 241.4C186.526 240.28 186.91 239.352 187.678 238.616C188.478 237.848 189.486 237.464 190.702 237.464C191.886 237.464 192.862 237.848 193.63 238.616C194.398 239.352 194.782 240.28 194.782 241.4C194.782 242.52 194.398 243.464 193.63 244.232C192.862 244.968 191.886 245.336 190.702 245.336ZM201.539 237.416C204.611 234.856 207.059 232.728 208.883 231.032C210.707 229.304 212.227 227.512 213.443 225.656C214.659 223.8 215.267 221.976 215.267 220.184C215.267 218.552 214.883 217.272 214.115 216.344C213.347 215.416 212.163 214.952 210.563 214.952C208.963 214.952 207.731 215.496 206.867 216.584C206.003 217.64 205.555 219.096 205.523 220.952H198.995C199.123 217.112 200.259 214.2 202.403 212.216C204.579 210.232 207.331 209.24 210.659 209.24C214.307 209.24 217.107 210.216 219.059 212.168C221.011 214.088 221.987 216.632 221.987 219.8C221.987 222.296 221.315 224.68 219.971 226.952C218.627 229.224 217.091 231.208 215.363 232.904C213.635 234.568 211.379 236.584 208.595 238.952H222.755V244.52H199.043V239.528L201.539 237.416ZM234.765 235.16C235.021 236.568 235.597 237.656 236.493 238.424C237.421 239.16 238.653 239.528 240.189 239.528C242.173 239.528 243.613 238.712 244.509 237.08C245.405 235.416 245.853 232.632 245.853 228.728C245.117 229.752 244.077 230.552 242.733 231.128C241.421 231.704 239.997 231.992 238.461 231.992C236.413 231.992 234.557 231.576 232.893 230.744C231.261 229.88 229.965 228.616 229.005 226.952C228.045 225.256 227.565 223.208 227.565 220.808C227.565 217.256 228.621 214.44 230.733 212.36C232.845 210.248 235.725 209.192 239.373 209.192C243.917 209.192 247.117 210.648 248.973 213.56C250.861 216.472 251.805 220.856 251.805 226.712C251.805 230.872 251.437 234.28 250.701 236.936C249.997 239.592 248.765 241.608 247.005 242.984C245.277 244.36 242.909 245.048 239.901 245.048C237.533 245.048 235.517 244.6 233.853 243.704C232.189 242.776 230.909 241.576 230.013 240.104C229.149 238.6 228.653 236.952 228.525 235.16H234.765ZM239.853 226.52C241.517 226.52 242.829 226.008 243.789 224.984C244.749 223.96 245.229 222.584 245.229 220.856C245.229 218.968 244.717 217.512 243.693 216.488C242.701 215.432 241.341 214.904 239.613 214.904C237.885 214.904 236.509 215.448 235.485 216.536C234.493 217.592 233.997 219 233.997 220.76C233.997 222.456 234.477 223.848 235.437 224.936C236.429 225.992 237.901 226.52 239.853 226.52ZM256.22 216.2V210.008H267.788V245H260.876V216.2H256.22Z" fill="#FEFEFE"/>
</svg>
