<svg width="56" height="56" viewBox="0 0 56 56" fill="none" xmlns="http://www.w3.org/2000/svg">
<circle cx="28" cy="28" r="27.5" stroke="#D3D3D3"/>
<path d="M30.857 33.082C32.7202 32.8614 34.5509 32.4217 36.311 31.772C34.8204 30.1208 33.9967 27.9745 34 25.75V25C34 23.4087 33.3678 21.8826 32.2426 20.7574C31.1174 19.6321 29.5913 19 28 19C26.4087 19 24.8826 19.6321 23.7573 20.7574C22.6321 21.8826 22 23.4087 22 25V25.75C22.003 27.9746 21.179 30.121 19.688 31.772C21.421 32.412 23.248 32.857 25.143 33.082M30.857 33.082C28.959 33.3071 27.041 33.3071 25.143 33.082M30.857 33.082C31.0011 33.5319 31.0369 34.0094 30.9616 34.4757C30.8862 34.942 30.7018 35.384 30.4234 35.7656C30.1449 36.1472 29.7803 36.4576 29.3592 36.6716C28.9381 36.8856 28.4724 36.9972 28 36.9972C27.5276 36.9972 27.0619 36.8856 26.6408 36.6716C26.2197 36.4576 25.8551 36.1472 25.5766 35.7656C25.2982 35.384 25.1138 34.942 25.0384 34.4757C24.9631 34.0094 24.9989 33.5319 25.143 33.082" stroke="#1A1A1A" stroke-width="1.5" stroke-linecap="round" stroke-linejoin="round"/>
</svg>
