<svg width="178" height="24" viewBox="0 0 178 24" fill="none" xmlns="http://www.w3.org/2000/svg">
<path d="M45.7813 19.8235L50.0166 6.96091H54.5241L48.3225 23.7276H43.1797L37.0083 6.96091H41.5461L45.7813 19.8235ZM59.0507 4.96343C58.3045 4.96343 57.6794 4.73141 57.1751 4.26734C56.691 3.7831 56.449 3.1879 56.449 2.48172C56.449 1.77553 56.691 1.19042 57.1751 0.726355C57.6794 0.242119 58.3045 0 59.0507 0C59.797 0 60.412 0.242119 60.896 0.726355C61.4003 1.19042 61.6523 1.77553 61.6523 2.48172C61.6523 3.1879 61.4003 3.7831 60.896 4.26734C60.412 4.73141 59.797 4.96343 59.0507 4.96343ZM61.1381 6.96091V23.7276H56.9028V6.96091H61.1381ZM80.9021 14.9811C80.9021 15.5864 80.8619 16.1311 80.7811 16.6154H68.5292C68.63 17.826 69.0536 18.7743 69.7997 19.4603C70.546 20.1462 71.4636 20.4893 72.5526 20.4893C74.1257 20.4893 75.245 19.8133 75.9106 18.4615H80.4786C79.9946 20.0757 79.0669 21.4074 77.6954 22.4565C76.3241 23.4855 74.64 24 72.6434 24C71.0301 24 69.578 23.647 68.2871 22.9407C67.0166 22.2144 66.0183 21.1955 65.2922 19.884C64.5864 18.5725 64.2334 17.0592 64.2334 15.3443C64.2334 13.6091 64.5864 12.0858 65.2922 10.7743C65.9981 9.46279 66.9863 8.45398 68.2569 7.74779C69.5275 7.04161 70.9897 6.68852 72.6434 6.68852C74.2368 6.68852 75.6586 7.03153 76.9089 7.71753C78.1795 8.40353 79.1577 9.38209 79.8433 10.6532C80.5492 11.9042 80.9021 13.3468 80.9021 14.9811ZM76.5156 13.7705C76.4955 12.681 76.1022 11.8134 75.3358 11.1677C74.5695 10.5019 73.6317 10.169 72.5224 10.169C71.4737 10.169 70.5863 10.4918 69.8602 11.1375C69.1545 11.7629 68.7208 12.6406 68.5594 13.7705H76.5156ZM107.227 6.96091L102.326 23.7276H97.7581L94.7027 12.0151L91.6472 23.7276H87.049L82.1179 6.96091H86.4137L89.3784 19.7327L92.585 6.96091H97.0623L100.208 19.7024L103.173 6.96091H107.227Z" fill="#1A1A1A"/>
<path d="M114.449 10.4414V18.5523C114.449 19.1172 114.58 19.5309 114.842 19.7932C115.125 20.0353 115.589 20.1564 116.234 20.1564H118.2V23.7276H115.538C111.968 23.7276 110.184 21.9924 110.184 18.5221V10.4414H108.187V6.96091H110.184V2.81463H114.449V6.96091H118.2V10.4414H114.449ZM125.482 9.56368C126.026 8.67591 126.732 7.97982 127.599 7.47541C128.487 6.971 129.495 6.71879 130.625 6.71879V11.1677H129.505C128.174 11.1677 127.166 11.4805 126.48 12.1059C125.815 12.7314 125.482 13.8209 125.482 15.3745V23.7276H121.247V6.96091H125.482V9.56368ZM135.625 4.96343C134.879 4.96343 134.254 4.73141 133.749 4.26734C133.265 3.7831 133.023 3.1879 133.023 2.48172C133.023 1.77553 133.265 1.19042 133.749 0.726355C134.254 0.242119 134.879 0 135.625 0C136.371 0 136.986 0.242119 137.47 0.726355C137.975 1.19042 138.227 1.77553 138.227 2.48172C138.227 3.1879 137.975 3.7831 137.47 4.26734C136.986 4.73141 136.371 4.96343 135.625 4.96343ZM137.712 6.96091V23.7276H133.477V6.96091H137.712ZM151.184 6.71879C153.181 6.71879 154.794 7.35435 156.024 8.62547C157.255 9.87642 157.87 11.6318 157.87 13.8916V23.7276H153.635V14.4666C153.635 13.1349 153.302 12.116 152.636 11.4098C151.971 10.6835 151.063 10.3203 149.914 10.3203C148.744 10.3203 147.816 10.6835 147.13 11.4098C146.465 12.116 146.132 13.1349 146.132 14.4666V23.7276H141.897V6.96091H146.132V9.04918C146.697 8.32283 147.413 7.75789 148.28 7.35435C149.167 6.93064 150.135 6.71879 151.184 6.71879ZM177.477 14.9811C177.477 15.5864 177.437 16.1311 177.356 16.6154H165.104C165.205 17.826 165.628 18.7743 166.375 19.4603C167.121 20.1462 168.038 20.4893 169.127 20.4893C170.701 20.4893 171.82 19.8133 172.485 18.4615H177.053C176.569 20.0757 175.642 21.4074 174.27 22.4565C172.899 23.4855 171.215 24 169.218 24C167.605 24 166.153 23.647 164.862 22.9407C163.591 22.2144 162.593 21.1955 161.867 19.884C161.161 18.5725 160.808 17.0592 160.808 15.3443C160.808 13.6091 161.161 12.0858 161.867 10.7743C162.573 9.46279 163.561 8.45398 164.832 7.74779C166.102 7.04161 167.565 6.68852 169.218 6.68852C170.811 6.68852 172.233 7.03153 173.484 7.71753C174.754 8.40353 175.733 9.38209 176.418 10.6532C177.124 11.9042 177.477 13.3468 177.477 14.9811ZM173.09 13.7705C173.07 12.681 172.677 11.8134 171.911 11.1677C171.144 10.5019 170.206 10.169 169.097 10.169C168.049 10.169 167.161 10.4918 166.435 11.1375C165.729 11.7629 165.296 12.6406 165.134 13.7705H173.09Z" fill="#1A1A1A"/>
<path d="M20.6367 6.95267C22.209 8.57388 26.4605 9.45357 28.3896 9.69096C17.6556 10.6103 14.4556 19.5877 14.1953 23.9742V23.9869C13.9404 19.605 10.7443 10.6121 0 9.69193C1.92907 9.45459 6.18055 8.57394 7.75293 6.95267L14.1943 13.3599L20.6367 6.95267Z" fill="#6C37FB"/>
</svg>
