<svg width="24" height="24" viewBox="0 0 24 24" fill="none" xmlns="http://www.w3.org/2000/svg">
<path fill-rule="evenodd" clip-rule="evenodd" d="M5.46934 5.47009C5.60997 5.32964 5.80059 5.25075 5.99934 5.25075C6.19809 5.25075 6.38871 5.32964 6.52934 5.47009L11.9993 10.9401L17.4693 5.47009C17.538 5.39641 17.6208 5.3373 17.7128 5.29631C17.8048 5.25532 17.9041 5.23328 18.0048 5.2315C18.1055 5.22972 18.2055 5.24825 18.2989 5.28597C18.3923 5.32369 18.4772 5.37984 18.5484 5.45105C18.6196 5.52227 18.6757 5.60711 18.7135 5.70049C18.7512 5.79388 18.7697 5.89391 18.7679 5.99461C18.7662 6.09532 18.7441 6.19463 18.7031 6.28663C18.6621 6.37863 18.603 6.46143 18.5293 6.53009L13.0593 12.0001L18.5293 17.4701C18.603 17.5388 18.6621 17.6216 18.7031 17.7136C18.7441 17.8056 18.7662 17.9049 18.7679 18.0056C18.7697 18.1063 18.7512 18.2063 18.7135 18.2997C18.6757 18.3931 18.6196 18.4779 18.5484 18.5491C18.4772 18.6203 18.3923 18.6765 18.2989 18.7142C18.2055 18.7519 18.1055 18.7705 18.0048 18.7687C17.9041 18.7669 17.8048 18.7449 17.7128 18.7039C17.6208 18.6629 17.538 18.6038 17.4693 18.5301L11.9993 13.0601L6.52934 18.5301C6.38717 18.6626 6.19912 18.7347 6.00482 18.7313C5.81052 18.7278 5.62513 18.6491 5.48772 18.5117C5.35031 18.3743 5.27159 18.1889 5.26817 17.9946C5.26474 17.8003 5.33686 17.6123 5.46934 17.4701L10.9393 12.0001L5.46934 6.53009C5.32889 6.38947 5.25 6.19884 5.25 6.00009C5.25 5.80134 5.32889 5.61072 5.46934 5.47009Z" fill="#1A1A1A"/>
</svg>
