<svg width="1576" height="270" viewBox="0 0 1576 270" fill="none" xmlns="http://www.w3.org/2000/svg">
<path d="M399.9 75.0322C417.781 75.0322 433.738 78.8797 447.769 86.5752C462.027 94.2707 473.005 105.248 480.699 119.508C488.621 133.541 492.581 149.725 492.581 168.059C492.581 174.849 492.129 180.96 491.223 186.392H353.73C354.863 199.972 359.615 210.611 367.988 218.306C376.363 226.001 386.66 229.85 398.882 229.85C416.535 229.85 429.097 222.267 436.565 207.103H487.828C482.396 225.21 471.985 240.149 456.595 251.918C441.206 263.461 422.306 269.233 399.9 269.233C381.796 269.233 365.501 265.272 351.015 257.35C336.756 249.201 325.553 237.772 317.405 223.06C309.485 208.347 305.522 191.371 305.522 172.133C305.522 152.667 309.485 135.578 317.405 120.866C325.327 106.154 336.416 94.837 350.675 86.915C364.933 78.9931 381.342 75.0323 399.9 75.0322ZM1483.31 75.0322C1501.19 75.0322 1517.15 78.8797 1531.18 86.5752C1545.44 94.2707 1556.42 105.249 1564.12 119.508C1572.04 133.541 1576 149.725 1576 168.059C1576 174.849 1575.55 180.96 1574.64 186.392H1437.13C1438.26 199.972 1443.02 210.611 1451.39 218.306C1459.77 226.001 1470.07 229.85 1482.29 229.85C1499.94 229.85 1512.51 222.267 1519.98 207.103H1571.25C1565.81 225.21 1555.4 240.149 1540.01 251.918C1524.62 263.461 1505.72 269.233 1483.31 269.233C1465.2 269.233 1448.9 265.272 1434.42 257.35C1420.15 249.201 1408.95 237.772 1400.8 223.06C1392.88 208.347 1388.92 191.371 1388.92 172.133C1388.92 152.667 1392.88 135.578 1400.8 120.866C1408.72 106.154 1419.81 94.837 1434.08 86.915C1448.34 78.993 1464.75 75.0322 1483.31 75.0322ZM98.4512 222.38L145.979 78.0879H196.564L126.969 266.178H69.2559L0 78.0879H50.9229L98.4512 222.38ZM270.786 266.178H223.258V78.0879H270.786V266.178ZM587.702 221.361L623.688 78.0879H673.932L709.238 221.022L742.509 78.0879H788L733.003 266.178H681.74L647.452 134.786L613.164 266.178H561.562L506.225 78.0879H554.433L587.702 221.361ZM868.603 78.0879H910.704V117.132H868.603V208.121C868.603 214.458 870.073 219.099 873.017 222.041C876.184 224.757 881.391 226.115 888.635 226.115H910.704V266.178H880.825C840.761 266.178 820.729 246.711 820.729 207.781V117.132H798.319V78.0879H820.729V31.5742H868.603V78.0879ZM1050.15 125.28H1037.59C1022.65 125.28 1011.33 128.788 1003.63 135.805C996.163 142.821 992.429 155.044 992.429 172.472V266.178H944.894V78.0879H992.429V107.286C998.54 97.3271 1006.46 89.5178 1016.2 83.8594C1026.16 78.201 1037.47 75.3721 1050.15 75.3721V125.28ZM1129.7 266.178H1082.17V78.0879H1129.7V266.178ZM1280.9 75.3721C1303.31 75.3721 1321.42 82.5013 1335.23 96.7607C1349.03 110.794 1355.94 130.486 1355.94 155.836V266.178H1308.4V162.287C1308.4 147.349 1304.67 135.918 1297.2 127.996C1289.73 119.848 1279.54 115.773 1266.64 115.773C1253.51 115.773 1243.1 119.848 1235.4 127.996C1227.93 135.918 1224.2 147.349 1224.2 162.287V266.178H1176.66V78.0879H1224.2V101.514C1230.54 93.3655 1238.57 87.0278 1248.31 82.501C1258.27 77.748 1269.13 75.3721 1280.9 75.3721ZM398.543 114.076C386.775 114.076 376.816 117.698 368.668 124.94C360.748 131.957 355.881 141.803 354.069 154.478H443.355C443.13 142.255 438.716 132.523 430.115 125.28C421.516 117.811 410.992 114.076 398.543 114.076ZM1481.95 114.076C1470.18 114.076 1460.22 117.698 1452.07 124.94C1444.15 131.957 1439.28 141.803 1437.47 154.478H1526.77C1526.54 142.255 1522.13 132.523 1513.53 125.28C1504.92 117.811 1494.4 114.076 1481.95 114.076ZM247.361 0C255.736 0 262.639 2.71628 268.07 8.14844C273.73 13.3543 276.558 19.9179 276.558 27.8398C276.558 35.7618 273.73 42.4389 268.07 47.8711C262.639 53.0769 255.736 55.6797 247.361 55.6797C238.988 55.6796 231.973 53.0769 226.313 47.8711C220.882 42.4389 218.166 35.7618 218.166 27.8398C218.166 19.918 220.882 13.3543 226.313 8.14844C231.973 2.71635 238.988 0.000100159 247.361 0ZM1106.27 0C1114.65 0 1121.55 2.71625 1126.98 8.14844C1132.64 13.3543 1135.47 19.9179 1135.47 27.8398C1135.47 35.7618 1132.64 42.4389 1126.98 47.8711C1121.55 53.077 1114.65 55.6797 1106.27 55.6797C1097.9 55.6796 1090.88 53.0769 1085.22 47.8711C1079.79 42.4389 1077.07 35.7618 1077.07 27.8398C1077.07 19.918 1079.79 13.3543 1085.22 8.14844C1090.88 2.71635 1097.9 9.70984e-05 1106.27 0Z" fill="#FEFEFE"/>
</svg>
